<?xml version="1.0" encoding="UTF-8"?>
<svg id="_レイヤー_2" data-name="レイヤー 2" xmlns="http://www.w3.org/2000/svg" viewBox="0 0 344.09 82.57">
  <defs>
    <style>
      .cls-1 {
        fill: #8e9fb2;
      }

      .cls-2 {
        fill: #ed7ca2;
      }

      .cls-3 {
        fill: #fff;
      }

      .cls-4 {
        fill: #264a64;
      }

      .cls-5 {
        fill: #f4f0bb;
      }

      .cls-6 {
        fill: #dce4ea;
      }

      .cls-7 {
        fill: #c3dcda;
      }
    </style>
  </defs>
  <g id="_レイヤー_1-2" data-name="レイヤー 1">
    <rect class="cls-2" x="0" y="34.06" width="327.65" height="44.78" rx="22.39" ry="22.39"/>
    <g>
      <path id="_白" data-name="白" class="cls-3" d="M265.45,11.22s-5.75,6.04-7.57,6.67l.84-6.38s-4.23,4.66-7.62,6.38c-3.39,1.72-6.94,2.72-6.94,2.72,0,0-3.2.03-3.32,2.65-.12,2.61.6,6.23,3.64,7.22,0,0,2.21,5.01,4.77,6.93,0,0-1.88,2.67-4.32,3.11-2.44.45-6.47.93-8.41,2.39s-3.13,2.42-5.41,6.15c-2.27,3.73-5.26,11.3-5.78,14.84-.52,3.54,0,6.82,1.94,8.17,1.94,1.34,2.5,2.01,6.08,1.72l.04.89-2.24,7.22h104.44l.26-6.59s3.95-.63,5.03-2.39c1.08-1.75,2.54-2.83,1.49-8.05-1.04-5.22-3.62-13.35-5.63-16.67-2.01-3.32-4.07-5.67-7.05-6.6s-9.02-2.05-9.02-2.05l-.93-1.79s3.13-3.43,3.43-5.93c0,0,4.55-1.53,5.33-3.88.78-2.35.48-4.55-1.79-6.45s-12.6-13.05-12.6-13.05l-20.32,11.25.48,4.99s-1.67-.37-2.16,1.43c-.48,1.8-.65,5.71,3.8,6.64,0,0,2.65,6.07,5.21,7.15l-.2,2.19-5,2.55s-3.31,1.05-4.21,2.87c-.89,1.83-1.49,6.45-1.49,6.45h-15.33s-.75-3.92-1.72-5.39c-.97-1.47-5.63-3.48-7.16-4.34-1.53-.86-3.01-2.12-3.01-3.28,0,0,8.08-1.9,9.05-7.8,0,0,4.61-1.09,4.25-4.55-.36-3.45-2.87-6.52-2.87-6.52,0,0-4.18-13.95-7.98-10.9Z"/>
      <g id="_男性" data-name="男性">
        <g id="_カラー" data-name="カラー">
          <g>
            <path class="cls-7" d="M339.78,60.98c-1.46-5.74-4.91-13.68-6.8-15.76-1.89-2.08-3.07-3.54-5.38-3.87-2.31-.33-7.72-2.31-7.72-2.31,0,0-2.2,12.29-2.3,14.43-.09,2.14-.23,5.21-.23,5.21l5.51,1.91,3.04.88s.98,3.45-.17,5.44c-1.14,1.98-1.91,2.32-1.91,2.32l-4.17-.94s-1,.74-2.39.27l.41,13.08h16.39l-.28-6.19s3.07-.19,5.05-2.6,2.41-6.13.94-11.87Z"/>
            <path class="cls-7" d="M291.58,45.79c-1.69,1.1-1.5.86-2.17,2.72-.67,1.86-1.16,5.64-1.16,5.64h11.01l1.03-9.32-.77-2.04s-6.25,1.91-7.93,3Z"/>
          </g>
          <path class="cls-1" d="M323.41,24.5c-.02-.32-.39-.56-.71-.53l-4.67.29c-.11,0-.21.05-.29.1-.02-.09-.04-.17-.06-.25-.43-1.41-2.18-2.38-4.19-2.23-1.96.14-3.52,1.3-3.8,2.7-2-.94-3.77-.03-4.37.35-.54-1.21-2.13-2.02-3.94-1.89-1.93.14-3.46,1.31-3.68,2.7-.02,0-.04,0-.06,0l-2.99.22c.04.39.07.78.11,1.17l2.97-.22s.07,0,.11-.02c0,0,0,.02,0,.03.51,1.25,2.13,2.1,3.97,1.96,1.96-.14,3.5-1.34,3.69-2.76.11,0,.23-.04.33-.12.07-.05,1.72-1.27,3.57-.26.1.06.22.08.32.07.02,0,.04,0,.06,0,.48,1.35,2.19,2.27,4.15,2.13,1.91-.14,3.45-1.25,3.78-2.61,0,0,0-.01,0-.02.11.08.25.13.4.12l4.67-.29c.32-.02.65-.31.63-.64ZM301.75,27.93c-1.51.11-2.81-.68-2.89-1.76-.08-1.08,1.09-2.05,2.6-2.16,1.51-.11,2.81.68,2.89,1.76.08,1.08-1.09,2.05-2.6,2.16ZM313.86,26.94c-1.57.11-2.91-.71-3-1.83-.08-1.12,1.13-2.13,2.7-2.24s2.91.71,3,1.83c.08,1.12-1.13,2.13-2.7,2.24Z"/>
        </g>
        <g id="_アウトライン" data-name="アウトライン">
          <path class="cls-4" d="M325.84,68.12c1.19-1.89,1.53-3.94.95-6.13-.18-.68-.54-1.09-1.25-1.21-1.3-.21-2.52-.68-3.64-1.38-.73-.45-1.49-.82-2.29-1.12-4.86-1.87-9.95-2.17-15.08-2.21-.45,0-.91.08-.9.66.02.49.42.64.85.64,1.93.02,3.85.25,5.77.31,2.74.09,5.32.76,7.92,1.47,1.7.47,3.05,1.61,4.64,2.28.38.16.48.54.53.92.22,1.52-.12,2.93-.92,4.23-.85,1.37-2.68,1.65-4,1.14-.87-.34-1.57-.89-2.27-1.48-.3-.25-.61-.47-.99-.19-.32.24-.32.58-.13.91.21.35,0,.55-.28.66-.55.22-1.12.25-1.62-.14-.44-.35-.31-.83-.15-1.26.33-.85.7-1.67,1.05-2.51.16-.39.25-.81-.21-1.04-.51-.25-.81.11-.99.52-.43.96-.93,1.88-1.2,2.91-.19.72-.5.86-1.15.51-.59-.32-.77-.78-.57-1.42.35-1.1,1.01-2.03,1.64-2.97.26-.39.55-.84.05-1.2-.55-.39-.87.07-1.15.48-.75,1.1-1.49,2.2-1.87,3.51-.73-.15-1-.55-.98-1.17.02-.61.19-1.18.52-1.69.4-.62.84-1.21,1.26-1.81.2-.28.23-.59,0-.87-.22-.27-.57-.28-.76-.07-.12.14-.24.23-.36.29-.03.04-.06.07-.1.11-.13.12-.24.25-.35.39-.02,0-.04-.01-.06-.02-1.33-.29-2.66-.58-3.99-.87-.84-.18-1.12,1.13-.28,1.31,1.18.26,2.36.51,3.54.77-.24.49-.5.97-.62,1.49-.43,1.8.08,2.81,1.82,3.46.3.11.44.32.61.55.58.76,1.33,1.26,2.31,1.21.47-.02.79.13,1.14.41,1.05.83,2.64.81,3.59-.07.37-.34.62-.22.96-.03.48.28.97.51,1.48.66.13,3.82.26,7.64.39,11.46.03.86,1.37.93,1.34.07-.13-3.77-.25-7.54-.38-11.3.35,0,.72-.03,1.09-.12.44-.1.81-.06,1.23.11,1.84.73,2.81.44,3.83-1.2ZM323.08,68.14c1.23-1.83,1.88-3.85,1.63-6.12.56,0,.77.21.86.6.42,1.94,0,3.69-1.2,5.27-.31.4-.67.6-1.29.25Z"/>
          <path class="cls-4" d="M342.22,60.74c-1.27-5.14-3.15-10.01-5.91-14.54-1.62-2.66-4.02-4.41-6.94-5.34-2.16-.69-4.39-1.16-6.62-1.63-.96-.2-1.92-.28-2.27-1.27,1.6-1.61,2.58-3.23,3.05-5.02,0,0,.02-.09.02-.1.23-.89.91-.86,1.66-1.18,2.57-1.1,4.37-3.58,4.47-6.4.04-1.22-.48-2.46-1.42-3.38-.05-.05-.1-.09-.15-.14.54-2.18.84-4.28.44-6.55-.69-3.96-3.18-7.83-6.55-10.23-1.26-.9-2.65-1.59-4.11-2.01-1.21-.34-2.46-.4-3.67-.69-1.38-.33-2.76-.71-4.19-.74-1.33-.03-2.66.18-3.94.51-1.09.23-2.17.57-3.21,1.01-.05.02-.09.05-.13.07-4.06,1.55-7.52,4.51-9.65,8.31-2.25,4.03-3.08,9.24-.82,13.42-.17.12-.33.27-.47.45-.66.82-.78,1.95-.69,2.96.23,2.43,1.87,4.38,4.14,5.2.12.04.23.05.33.03.06.19.12.38.19.57.12.35.25.7.4,1.04.94,2.19,2.58,3.95,4.56,5.2-.15.23-.23.5-.22.79.04.64-.29.89-.82,1.1-1.27.5-2.54.99-3.77,1.57-1.6.76-3.26,1.44-4.4,2.93-1.49,1.95-1.33,4.34-1.87,6.53,0,.39.13.7.55.76.41.06.63-.2.74-.56.3-.98.36-2.01.5-3.02.35-2.49,1.8-3.98,4.08-4.98,1.81-.8,3.68-1.47,5.46-2.34.41-.2.72-.44.76-.93.03-.4.05-.8.17-1.18.31.16.62.3.94.43.84.35,1.7.62,2.58.82-.1.3-.01.59.21.8.88.85,1.76,1.69,2.66,2.51.32.3.74.36,1.09.05,1.31-1.13,2.78-2.06,4.02-3.27.11-.11.23-.23.32-.35,1.98-.57,3.85-1.49,5.38-2.78.12-.1.24-.2.35-.3.16.42.36.83.6,1.21.34.54.95.15,1.43.24.53.1,1.07.18,1.59.3,1.63.39,3.26.79,4.88,1.2,3.24.81,5.76,2.6,7.47,5.49,2.96,5.02,4.89,10.43,6,16.13.43,2.23.74,4.53-.14,6.8-1.27,3.26-4.33,4.86-7.74,4-2.88-.72-5.43-2.14-7.96-3.6-.37-.21-.72-.44-1.05-.03-.36.44-.07.8.26,1.1.19.17.41.3.64.42.87.47,1.74.96,2.63,1.4,2.04,1.01,4.13,1.91,6.42,2.18.47.06.55.28.55.67-.01.79,0,2.77,0,3.56,0,.48.03.99.65.99.62,0,.66-.52.67-.99.01-.77.03-2.71-.01-3.48-.04-.59.15-.86.76-.97.95-.16,1.87-.47,2.68-1.05,2.54-1.81,3.28-4.42,3.35-7.34-.03-2.18-.42-4.29-.94-6.4ZM292.66,29.16c-.22-.69-.32-1.47-.17-2.19.13-.63.67-1.55,1.45-1.18.03.01.05.02.08.03.05.41.1.83.17,1.24.02.14.03.28.03.41.25,1.52.54,3.04.94,4.53-1.17-.56-2.1-1.57-2.5-2.83ZM308.38,43.82c-.43-.46-.9-.88-1.35-1.31.02,0,.04,0,.06,0,1.34.16,2.74.15,4.13-.02-.58.46-1.18.9-1.76,1.36-.41.33-.7.36-1.08-.03ZM305.57,40.91c-1.99-.5-3.87-1.45-5.45-2.75-1.54-1.27-2.54-3.18-3.21-5.03-.17-.47-.33-.96-.48-1.46-.41-1.73-.75-3.47-1.02-5.22-.1-.88-.17-1.79-.21-2.72-.01-.26-.08-.45-.19-.58-.01-.51-.03-1.03-.04-1.54.02-.02.03-.04.05-.05,3.99-1.38,7.84-3.13,11.49-5.22,2.52-1.24,4.9-2.72,6.99-4.6.28-.21.57-.43.85-.65.61,1.39,1.37,2.71,2.27,3.92.09.15.18.31.27.46,1.03,1.66,2.39,3.2,3.99,4.33,1.64,1.16,2.42,2.47,1.88,4.46-.12.43.11.83.6.89.49.07.76-.25.82-.71.07-.56.12-1.12.13-1.68,0-.35.06-.62.17-.82.1,0,.21,0,.32,0h.11c.69-.02,1.34.16,1.89.52,0,0,.02.02.02.03.16.18.33.31.49.39.03.03.06.06.08.08.68.72,1.02,1.72.94,2.75-.21,2.61-2.53,4.58-4.95,5.08-.49.1-.77.41-.92,1.01-.22.88-.49,1.88-1.04,2.75-.92,1.46-2.07,2.76-3.45,3.81-3.43,2.6-8.22,3.6-12.39,2.56Z"/>
          <path class="cls-4" d="M320.71,42.71c-.87-.16-.83.71-.9,1.24-.35,2.9-.96,7.26-1.07,10.19,0,.88,0,1.76,0,2.64,0,.41.18.74.64.75.41,0,.61-.28.65-.65.04-.39.05-.79.05-1.19-.06-3.39.64-8.2,1.02-11.55.06-.53.41-1.27-.39-1.42Z"/>
          <path class="cls-4" d="M319.69,41.11c-.48-.39-.78.03-1.13.36-1.5,1.4-2.64,3.11-4.07,4.57-.56.57-.91.63-1.53.15-.62-.48-1.3-.92-2.02-1.07-.36.01-.59.12-.68.39-.12.35.02.63.32.79,1,.54,1.98,1.1,2.83,1.88.38.35.79.17,1.11-.19,1.68-1.88,3.37-3.76,5.06-5.64.34-.38.63-.84.12-1.25Z"/>
          <path class="cls-4" d="M328.34,60.93c2.33-.4,4.67-.52,7.02-.3.48.04.95.14,1.43.21.4.06.78,0,.89-.44.12-.49-.21-.72-.62-.85-.19-.06-.39-.07-.58-.11-1.12-.19-2.25-.21-3.49-.19-1.58-.09-3.23.15-4.89.34-.49.06-.89.36-.77.91.12.55.56.5,1.02.42Z"/>
          <path class="cls-4" d="M304.72,48.25c.81-.72,1.65-1.38,2.66-1.8.29-.12.43-.39.35-.7-.09-.36-.37-.49-.71-.48-.35,0-.66.17-.95.35-.6.37-1.18.76-1.8,1.17-.45-.78-.89-1.54-1.33-2.29-.21-.36-.53-.53-.93-.32-.38.2-.39.56-.22.89.52,1,1.06,2.01,1.63,2.98.32.53.84.62,1.3.21Z"/>
          <path class="cls-4" d="M301.62,46.4c-.68-.1-.76.46-.8.95-.13,1.44-.24,2.88-.36,4.3,0,.37,0,.71,0,1.05,0,.4.1.76.57.81.53.05.66-.34.73-.76.03-.17.03-.34.04-.51.11-1.59.22-3.17.33-4.76.03-.46.11-1-.51-1.09Z"/>
          <path class="cls-4" d="M308.99,69.64c-.51,0-.78.33-.8.81-.02.51.23.9.78.93.56.03.79-.35.85-.86-.04-.51-.25-.89-.82-.88Z"/>
          <path class="cls-4" d="M309.58,49.73c-.02-.53-.35-.83-.88-.8-.49.03-.76.34-.76.84,0,.53.29.83.83.86.54-.06.83-.38.81-.9Z"/>
          <path class="cls-4" d="M312.98,24.36h-.05c-.5.04-.93.26-1.15.6h0s-.16.51-.16.51v.03c.19.78.73,1.23,1.47,1.19h.04c.36-.03.74-.17,1.06-.41l.03-.02v-.03c.37-.66.25-1.09.08-1.34-.25-.36-.75-.57-1.31-.54Z"/>
          <path class="cls-4" d="M302.34,25.8c-.27-.32-.74-.49-1.27-.45-.56.04-1.03.31-1.23.69-.14.27-.21.71.22,1.33l.02.02.03.02c.36.2.77.3,1.14.28h0c.73-.05,1.22-.56,1.3-1.35v-.03s-.2-.47-.2-.47l-.02-.02Z"/>
          <path class="cls-4" d="M300.65,21.54c.12-.02.25-.02.38-.01.06,0,.11,0,.16,0,.42-.05.62-.44.61-.78-.01-.3-.19-.66-.66-.68-.24-.01-.48,0-.71.02-.46.06-.88.2-1.26.43-.31.18-.55.57-.35.99.13.27.47.46.77.42.08-.01.15-.04.21-.07.28-.17.55-.27.83-.3Z"/>
          <path class="cls-4" d="M315.01,19.07c-.44-.15-.92-.21-1.41-.18-.25.01-.5.05-.75.11-.49.12-.61.5-.56.8.05.34.34.68.79.65.06,0,.11-.01.17-.03.14-.03.27-.05.41-.06.3-.02.6.03.93.14.08.03.16.04.24.03.32-.02.65-.26.73-.56.14-.45-.19-.78-.55-.91Z"/>
          <path class="cls-4" d="M306.3,30.42c.28.1.56.21.84.31.45.17.97-.16.96-.66,0-.08-.02-.17-.05-.25-.07-.17-.2-.31-.37-.38-.07-.03-.14-.05-.22-.08.07-.08.15-.16.22-.25.06-.07.1-.15.11-.24.09-.26-.03-.56-.24-.73-.21-.16-.45-.16-.69-.1-.12.05-.21.12-.29.22-.22.24-.43.48-.65.71-.16.2-.22.51-.16.76.06.27.28.57.54.67Z"/>
          <path class="cls-4" d="M311.67,33.12c-.66-.02-1.33.04-1.98.1-.31.03-.62.05-.93.07l-.03-.02v.02c-.21.01-.41.02-.62.03-.75.04-1.53.08-2.29.19-.05,0-.09.01-.14.02-.42.09-.72.3-.85.58-.12.29-.06.65.18,1.01l.15.23c.47.73.97,1.49,1.62,2.07.81.72,1.61,1,2.4.84.25-.05.5-.15.75-.29.25-.14.49-.33.72-.57.9-.9,1.53-1.8,1.93-2.77.23-.54.26-.91.1-1.15-.15-.23-.48-.35-1.02-.37ZM310.96,34.64c-.4.87-.99,1.57-1.87,2.2-.07.05-.14.08-.22.1-.3.06-.6-.17-.82-.33-.51-.38-.89-.87-1.32-1.44l-.19-.24s-.03-.08-.02-.11c.01-.04.05-.07.09-.08,0,0,.01,0,.02,0l4.23-.26s.08.02.11.05c.02.03.03.08,0,.11Z"/>
          <path class="cls-4" d="M292.04,2.83c.11,0,.21,0,.31-.05.12-.06.23-.15.33-.3v-.02s.02-.02.02-.02c0-.02.01-.03.02-.05.02-.06.06-.15.05-.24-.01-.56-.06-1.16-.29-1.72-.13-.33-.37-.47-.67-.41-.05.01-.09.02-.13.04-.22.1-.34.31-.35.6-.02.61.02,1.15.13,1.64.07.31.28.5.58.52Z"/>
          <path class="cls-4" d="M286.84,8.14c-.68,0-1.27.09-1.78.29l-.04.02c-.21.09-.34.26-.36.46-.02.21.09.42.3.57l.02.02s.07.02.09.02c.08.02.19.05.3.06.55.05,1.09-.03,1.49-.11.07-.01.14-.04.21-.06.26-.12.41-.36.4-.66-.01-.37-.26-.6-.63-.6Z"/>
          <path class="cls-4" d="M289.89,3.14c-.26-.44-.63-.84-1.15-1.25-.18-.14-.39-.18-.58-.09-.04.02-.09.05-.13.08-.22.18-.27.42-.13.74.2.48.52.86.82,1.23l.1.12h.01c.27.22.51.27.74.17.05-.02.11-.06.16-.1.28-.23.34-.57.16-.88Z"/>
          <path class="cls-4" d="M287.7,5.14c-.39-.18-.79-.35-1.2-.49-.17-.06-.4-.12-.6-.03-.11.05-.19.13-.26.25-.22.42.09.67.37.9l.02.02c.08.05.17.1.26.15.23.13.49.28.75.41.27.13.51.16.71.07.13-.06.24-.16.32-.31.1-.18.13-.36.07-.52-.06-.18-.21-.34-.45-.45Z"/>
        </g>
      </g>
      <g id="_女性" data-name="女性">
        <g id="_カラー-2" data-name="カラー">
          <path class="cls-5" d="M242.08,40.97s-5.03.23-7.36,1.6-4.11,3.02-6.44,7.86c-2.33,4.84-4.34,9.28-4.94,12.2s-1.65,11.47,7.63,11.2l.27.91-1.86,7.15h35.14l-3.03-26.08s.87-1.96,2.15-1.82c1.28.14,9.21.08,9.21.08,0,0-.48-3.69-1.89-5.2s-2.29-2.29-4.07-3.14l-1.77-.85-4.88,3.16-5.31,18.71s-.39,1.02-1.46.89c-1.08-.13-7.87-2.41-7.87-2.41l-3.17.45-.81.93s-3.89-2.92-4.07-8.16c0,0,1.85-.94,2.26-2.54.41-1.6-.35-3.9,1.8-5.79,2.15-1.89,4.57-3.01,4.57-3.01l.26-1.36-4.36-4.8Z"/>
          <g>
            <path class="cls-1" d="M275.85,26.34s.03.07.04.11c.39-1.27.79-2.53,1.04-3.84.49-2.47.25-5,.03-7.49-.55-1.91-1.42-3.74-2.58-5.35-.59-.82-1.25-1.59-1.97-2.3-2.09-2.08-4.66-3.92-7.67-4.21-1.92-.18-3.77-.82-5.68-1.07-1.64-.21-3.44.12-5.02.57-2.87.81-5.53,2.38-7.61,4.51-2.32,2.37-4.29,5.31-5.28,8.49-.87,2.8-1.23,5.83-1.71,8.72-.53,3.18-1.64,6.19-2.66,9.24-.91,2.71-.79,5.39.41,8.01.07.15.15.29.23.4,1.44-.41,2.98-.65,4.45-1.01,1.52-.37,3.11-.81,4.54-1.44,1.17-.52,2.11-1.26,2.86-2.23,0,0-.02-.02-.03-.02-1.78-1.44-2.98-3.25-3.52-5.49-.17-.69-.59-1.16-1.24-1.45-1.73-.75-2.75-2.21-3.7-3.74-.18-.29-.11-.57-.06-.86.09-.49.29-.97.28-1.46-.04-1.59.96-2.36,2.19-3,.27-.14.53-.26.85-.21,3.33.53,6.06-.81,8.58-2.78,1.93-1.52,3.46-3.43,5.14-5.24-.22,1.67-.67,3.23-1.8,4.52-.31.35-.53.7-.3,1.15.23.46.67.49,1.11.46,4.09-.3,7.05-2.39,9.17-5.8.33-.52.62-1.07.94-1.63.77.22,1.15.75,1.49,1.32,1,1.71,1.34,3.66,1.9,5.52.45,1.49.9,2.97,1.52,4.4.35.81.86,1.59,1.66,2.01.8.42,2,.23,2.41,1.21Z"/>
            <path class="cls-1" d="M273.58,32.88c-.47-.21-.93-.13-1.26.27-.19.23-.3.54-.43.82-.93,1.97-2.13,3.68-4.07,4.81-1.19.7-2.42,1.23-3.76,1.52-1.03.23-1.32.83-.85,1.77.13.27.32.55.54.74,1.51,1.32,3.03,2.63,4.89,3.47.34.15.67.32,1.22.33.4,0,.85-.23,1.22-.65.5-.57.87-1.21,1.03-1.95.73-3.36.99-6.81,1.93-10.13.12-.42-.02-.82-.45-1.01Z"/>
          </g>
        </g>
        <g id="_アウトライン-2" data-name="アウトライン">
          <path class="cls-4" d="M239.08,57.49c-.08-.32-.29-.48-.64-.48-.09,0-.19.01-.3.03-1.08.22-2.18.46-3.13.66-1.92.41-3.84.98-5.69,1.52l-.25.07c-.33.1-.75.29-.64.82.06.32.29.48.69.48h0s.05,0,.08,0c.02,0,.04,0,.06,0,.04,0,.08-.01.11-.02,2.84-.86,5.8-1.6,9.07-2.27.28-.06.48-.17.58-.34.08-.13.1-.29.06-.48Z"/>
          <circle class="cls-4" cx="251.64" cy="46.41" r=".98"/>
          <path class="cls-4" d="M253.29,24.62l.02.02c.31.23.67.38,1.02.42h.04c.71.06,1.25-.36,1.45-1.11v-.03s-.13-.5-.13-.5h0c-.21-.34-.62-.56-1.1-.61h-.05c-.54-.04-1.04.14-1.28.49-.17.24-.3.66.03,1.3v.03Z"/>
          <path class="cls-4" d="M266.5,26.49h0c.36.04.76-.05,1.11-.24h.03s.02-.04.02-.04c.44-.58.38-1.02.25-1.28-.18-.38-.63-.65-1.17-.7-.51-.05-.97.1-1.24.41l-.02.02-.21.45v.03c.06.77.52,1.28,1.23,1.35Z"/>
          <path class="cls-4" d="M266.8,21.32c.05,0,.1,0,.16,0,.13,0,.25,0,.37.01.27.04.53.13.8.3.06.04.13.06.21.07.29.04.62-.14.75-.4.2-.4-.03-.78-.33-.96-.37-.22-.77-.36-1.21-.42-.22-.03-.45-.04-.69-.03-.45.03-.63.37-.64.66-.01.34.18.71.59.76Z"/>
          <path class="cls-4" d="M253.87,19.71c.07.01.15,0,.22-.01.3-.08.58-.11.85-.07.12.02.24.05.36.09.05.02.1.03.15.04.4.06.69-.25.77-.58.07-.28,0-.66-.44-.81-.22-.07-.44-.13-.67-.16-.44-.06-.87-.03-1.28.08-.34.09-.66.4-.58.84.05.29.32.55.61.59Z"/>
          <path class="cls-4" d="M261.69,30.15c.28-.1.55-.2.83-.3.26-.09.48-.38.54-.65.06-.24,0-.55-.15-.75-.21-.24-.42-.47-.63-.71-.07-.1-.17-.17-.28-.22-.24-.07-.47-.07-.68.08-.21.16-.33.46-.24.71.01.09.05.17.11.24.07.08.14.16.22.25-.07.03-.14.05-.21.08-.17.06-.3.2-.37.37-.03.08-.05.16-.06.24-.02.49.49.82.94.66Z"/>
          <path class="cls-4" d="M254.86,32.74c-.17.24-.15.6.05,1.15.36.98.95,1.91,1.81,2.84.45.49.93.8,1.43.92.39.1.79.08,1.19-.04.41-.12.82-.36,1.23-.7.67-.55,1.19-1.29,1.7-2l.16-.22c.25-.35.33-.71.22-1-.11-.29-.4-.51-.82-.62-.04-.01-.09-.02-.13-.03-.75-.14-1.52-.21-2.27-.28-.21-.02-1.27-.14-1.57-.17-.65-.08-1.31-.17-1.97-.18-.53,0-.87.1-1.03.33ZM256.55,33.84s.07-.05.11-.05l4.2.43s.01,0,.02,0c.04,0,.07.04.08.08.01.04,0,.08-.02.11l-.2.24c-.19.23-.37.44-.56.64-.26.28-.52.52-.82.74-.23.16-.53.37-.83.3-.07-.02-.15-.05-.21-.11-.85-.66-1.41-1.38-1.77-2.27-.01-.04,0-.08.02-.11Z"/>
          <path class="cls-4" d="M276.1,25.33c-.67-.73-1.84-1-2.61-.33-.38.07-.48.45-.53.84-.29,2.53-.97,4.98-1.8,7.36-.87,2.49-2.28,4.71-4.89,5.77-2.17.88-4.37,1.6-6.81,1.53-6.41-.21-10.92-3.23-13.21-9.11-.34-.88-.69-1.6-1.72-1.87-.51-.14-.97-.55-1.4-.9-1.82-1.48-2.21-3.94-.94-5.9.38-.59.93-.97,1.63-1.08.89-.15,1.36.24,1.36,1.12,0,.7-.02,1.4-.02,2.09,0,.44.13.86.66.86.52,0,.69-.39.7-.84.02-.7.02-1.4.02-2.09.02-1.71-1.09-2.7-2.82-2.5-1.08.12-1.98.63-2.57,1.52-.91,1.38-1.32,2.88-.96,4.57.49,2.25,2.04,3.54,3.98,4.51.4.2.61.42.75.86.7,2.27,1.81,4.2,3.37,5.75-.23.24-.47.48-.72.71-1.64,1.49-3.72,1.96-5.7,2.32-1.66.3-3.04.6-4.35,1.09-2.15.81-3.99,2.4-5.46,4.74-2.77,4.39-4.95,9.1-6.49,13.99-.83,2.64-1.18,4.85-1.09,6.96.09,2.17.88,3.89,2.37,5.08,1.03.83,2.12,1.42,3.27,1.76.6.18,1.23.29,1.86.32.11,0,.22,0,.34,0,.15,0,.31,0,.49-.02-.12.42-.24.85-.36,1.27-.36,1.28-.72,2.61-1.23,3.86-.1.25-.2.57-.09.82.06.14.19.25.38.32.1.04.2.06.28.06h0c.4,0,.54-.4.69-.79.4-1.08.71-2.2,1.02-3.28l.1-.36c.19-.66.39-1.32.59-1.97.29-.03.57-.07.88-.16,1.54-.43,2.83-1.19,4.19-1.98l.27-.16c.87-.5,1.59-1.21,2.3-1.9.4-.39.8-.78,1.23-1.14.16-.13.33-.26.5-.39.4-.31.82-.63,1.15-1.04.22-.27.31-.54.26-.77-.04-.21-.18-.38-.42-.51-.02-.01-.04-.02-.06-.04.02,0,.04,0,.06,0,.08,0,.16,0,.24,0h0c.11,0,.22,0,.32-.02.54-.05,1.09-.13,1.63-.22l7.85,2.18c.25.07.49.1.74.1,1.21,0,2.33-.8,2.67-2.03l4.88-17.58c1.45-.91,2.87-1.87,4.26-2.89.04-.03.08-.07.11-.1.36.18.73.35,1.11.5,1.67.67,3.3,1.62,4.39,3.08.87,1.17,1.22,2.68,1.36,4.11.04.43.23.81.72.81.44,0,.63-.3.63-.68,0-.04,0-.07,0-.11-.08-1.07-.26-2.23-.68-3.22-.4-.94-.99-1.81-1.67-2.56-1.07-1.19-2.49-1.87-3.74-2.42-1.73-.75-3.93-1.86-5.63-3.73-.05-.05-.09-.09-.14-.13.72-.18,1.44-.4,2.16-.68,2.46-.96,4.4-2.45,5.69-4.81.37-.69.68-1.4.95-2.16,2.47-.36,4.47-2.22,4.73-4.77.13-1.22-.14-2.7-.99-3.63ZM242.25,68c-1.55,1.38-3.01,2.69-4.74,3.71-1.64.97-3.2,1.44-4.77,1.44-1.25,0-2.51-.31-3.74-.93-2.07-1.04-3.16-2.75-3.23-5.08-.07-2.31.53-4.57,1.11-6.75l.03-.1c.54-2.04,1.47-3.95,2.36-5.8.41-.85.83-1.73,1.22-2.61.9-2.08,1.74-3.6,2.71-4.95,1.8-2.5,3.77-3.94,6.19-4.52.66-.16,1.35-.3,2.01-.43.85-.17,1.71-.34,2.56-.57,1.17,1.64,2.44,3.2,3.82,4.66l-.16.58c-.11.06-.21.11-.32.17-.14.08-.29.15-.43.23-2.31,1.19-3.86,2.83-4.72,5.02-.25.64-.38,1.32-.51,1.98-.04.21-.08.42-.12.63-.27,1.28-.89,2.25-1.89,2.97-.27.2-.52.39-.56.65-.02.12.02.24.1.37-.18.2-.16.53-.09.86.38,1.86.94,3.29,1.77,4.51.77,1.13,1.48,2.15,2.4,3.1-.33.29-.65.58-.98.87ZM244.85,65.01c-.16.01-.29.03-.4.06-.37.11-.55.33-.52.65,0,.08.02.15.05.21-.56-.46-.98-1.04-1.39-1.61l-.14-.19c-1.14-1.56-1.84-3.17-2.14-4.92-.02-.12-.06-.26-.13-.4.07-.04.13-.09.19-.13,1.39-.98,2.23-2.41,2.49-4.26.38-2.68,1.78-4.67,4.27-6.07l-.93,3.34c-.08.03-.15.07-.23.1-.5.22-.67.51-.52.88.11.27.29.41.55.41.14,0,.3-.04.49-.12.21-.09.42-.19.63-.28.41-.19.83-.38,1.25-.53.4-.15.79-.3,1.19-.44,1.91-.72,3.89-1.47,5.97-1.77.04,0,.09-.01.13-.02.16-.02.32-.05.48-.05.29,0,.54.08.78.26-.14.09-.28.18-.4.26-.28.19-.54.36-.82.51-.26.14-.52.28-.77.42-1.16.63-2.36,1.27-3.57,1.85-.48.23-.73.62-.98,1-.11.17-.23.35-.36.5-.1.12-.13.25-.09.38.06.19.27.36.52.43.12.03.26.05.43.05.09,0,.17,0,.26,0h.1c.66-.03,1.32-.05,1.98-.07,1.11-.04,2.27-.08,3.4-.11.02,0,.03,0,.05,0,.22,0,.52.04.71.23.11.11.17.26.17.45,0,.45-.31.68-.91.7-.97.03-1.85.07-2.69.13-1.01.07-2.04.17-3,.26-.38.04-.81.15-.78.66.02.54.44.61.8.61.03,0,.06,0,.09,0,.03,0,.07,0,.1,0,.1,0,.2,0,.3-.02,1.14-.19,2.32-.23,3.45-.27.39-.01.8-.03,1.2-.05.09,0,.19-.02.3-.05.13-.03.26-.05.38-.05.25,0,.38.12.43.38.11.6-.46.75-.96.89-.05.01-.1.02-.15.04-.03,0-.05.01-.08.02l-1.29.28c-1.11.24-2.23.49-3.34.74h-.05c-.29.07-.62.15-.77.37-.08.12-.09.28-.05.47.07.32.27.48.6.48.16,0,.34-.04.51-.07h.04c.21-.05.43-.11.63-.16.22-.05.45-.11.68-.16.56-.11,1.11-.22,1.69-.33.23-.04.45-.09.68-.13-.05.36-.26.54-.47.72-.04.03-.08.07-.12.1-.66.6-1.45,1.07-2.41,1.46-2.3.92-4.81,1.79-7.53,1.99ZM256.69,65.95c-.21.76-1,1.2-1.75.99l-5.47-1.52c1.52-.44,3.06-1.04,4.63-1.8.81-.39,1.56-.99,2.22-1.77.02-.03.05-.06.07-.08.19-.21.4-.46.37-.76-.04-.49.26-.65.61-.84,1.03-.55,1.37-1.31,1.1-2.46-.05-.23-.06-.41.07-.64.39-.69.44-1.42.11-2.01-.32-.59-.97-.95-1.77-1-.24-.01-.5-.02-.78-.02-.52,0-1.06.02-1.57.05-.37.02-.76.03-1.13.04-.07,0-.14,0-.21.01-.08,0-.16.02-.24.02-.13,0-.24-.02-.34-.06.12-.2.29-.28.45-.35.06-.03.13-.06.19-.09.6-.36,1.23-.68,1.85-.99.8-.4,1.63-.81,2.38-1.33.45-.31.89-.72.72-1.48-.16-.69-.61-1.1-1.34-1.21-.22-.03-.45-.05-.68-.05-.38,0-.78.04-1.22.13-2.41.48-4.67,1.27-7.16,2.3l1.81-6.51c.1-.37.34-.67.67-.86s.72-.23,1.08-.13l9.36,2.6c.76.21,1.2,1,.99,1.75l-5.02,18.08ZM262.64,42.17c.1.35.34.59.63.85.89.8,1.79,1.47,2.71,2.03-.95.69-1.93,1.36-2.92,2.01-.17-1.04-.92-1.93-1.99-2.23l-9.36-2.6c-.71-.2-1.46-.11-2.1.26-.64.36-1.11.96-1.3,1.67l-.12.44c-1.03-1.14-2-2.34-2.91-3.59.06-.02.12-.04.18-.06,1.43-.53,2.71-1.4,3.81-2.58.94.75,2,1.38,3.21,1.89,3.37,1.42,6.77,1.96,10.21,1.33-.1.15-.11.35-.05.59ZM275.58,29.75c-.43,1.26-1.5,2.21-2.76,2.57.18-.58.35-1.19.55-1.86.28-1.11.8-2.73.95-4.44.65-.55,1.25.89,1.37,1.37.19.77.16,1.6-.1,2.35Z"/>
        </g>
      </g>
      <g id="_パソコン_デスク" data-name="パソコン・デスク">
        <path class="cls-6" d="M313.91,79.53l-9.84-.11h-.36l-2.49-22.44s-.23-2.47-2.39-2.82-35.21,0-35.21,0c0,0-1.48.76-1.66,1.58-.18.82,3.04,26.17,3.04,26.17h38.98v-.09s9.92,0,9.92,0v-2.28Z"/>
        <g>
          <path class="cls-4" d="M343.42,81.23h-26.11v-1.83c0-.37-.3-.67-.67-.67h-10.31l-2.55-22.04c-.18-1.83-1.71-3.22-3.56-3.22h-36.11c-.78,0-1.53.33-2.06.91-.53.58-.78,1.36-.7,2.15l2.94,25.44c.04.34.33.59.67.59h78.47c.37,0,.67-.3.67-.67s-.3-.67-.67-.67ZM315.97,80.07v1.16h-9.35l-.13-1.16h9.49ZM265.55,81.23l-2.87-24.84c-.04-.41.09-.8.36-1.11.28-.3.65-.47,1.06-.47h36.11c1.15,0,2.11.86,2.22,2.02l2.62,22.63s0,0,0,0l.2,1.76h-39.72Z"/>
          <path class="cls-4" d="M262.49,81.23h-35.61c-.37,0-.67.3-.67.67s.3.67.67.67h35.61c.37,0,.67-.3.67-.67s-.3-.67-.67-.67Z"/>
        </g>
      </g>
    </g>
    <g>
      <path class="cls-3" d="M31.73,54.36c-.86.75-1.39,1.12-1.94,1.5l-1.8-2.42c3.37-2.27,5.13-4.58,6.34-7.77l2.71.55c-1.08,2.9-2.2,4.86-4.27,7.11h12.08c-2.07-2.33-3.48-4.64-4.38-6.95l2.71-.73c1.47,3.5,3.37,5.76,6.16,7.75l-1.8,2.33c-.55-.37-1.03-.7-1.98-1.65.07,3.48-.31,8.96-1.06,10.69-.7,1.61-2.05,1.65-2.79,1.65h-3.59l-.53-2.75h3.28c.9,0,1.12-.57,1.21-.81.48-1.32.55-3.32.7-6.91h-4.55c-.62,6.27-4.33,8.89-8.08,10.47l-1.63-2.53c4.71-1.89,6.65-4.14,6.93-7.94h-3.72v-1.58Z"/>
      <path class="cls-3" d="M58.15,49.41h7.42v2.2h-7.42v-2.2ZM58.68,46.13h6.25v2.18h-6.25v-2.18ZM64.93,61.23v4.4h-3.89v.88h-2.35v-7.2h6.25v1.87c.68-.15,2.6-.59,4.22-1.78h-3.59v-1.85h2.9v-.97h-2.13v-1.63h2.13v-.81h-2.51v-1.76h2.51v-.73h2.38v.73h2.84v-.73h2.38v.73h2.75v1.76h-2.75v.81h2.31v1.63h-2.31v.97h2.88v1.85h-4.93c.48,1.03.86,1.54,1.03,1.78.9-.66,1.41-1.17,1.96-1.76l1.83,1.5c-.97.92-1.03.97-2.22,1.8.95.7,1.85,1.12,2.53,1.43l-1.32,2.4c-1.21-.66-4.6-2.46-5.92-6.73-.55.55-.97.88-1.28,1.1v2.82c1.74-.18,2.38-.26,2.97-.35l.02,2.24c-1.83.29-5.26.64-7.22.7l-.37-2.35c.7,0,1.34,0,2.31-.07v-1.58c-1.12.55-1.72.77-2.35,1.01l-1.06-2.11ZM58.68,52.67h6.25v2.18h-6.25v-2.18ZM58.68,55.95h6.25v2.18h-6.25v-2.18ZM60.99,61.4v2.18h1.76v-2.18h-1.76ZM65.86,50.12c1.56-.29,2.35-.51,3.78-1.12h-3.94v-2.09h5.3v-1.17h2.57v1.17h5.37v2.09h-3.92c.29.13,1.65.77,3.92,1.17l-.88,1.76c-.62-.09-2.84-.46-4.82-1.61l1.17-1.32h-4.2l1.32,1.34c-.68.37-1.63.88-4.77,1.65l-.9-1.87ZM70.85,54.14v.81h2.84v-.81h-2.84ZM70.85,56.58v.97h2.84v-.97h-2.84Z"/>
      <path class="cls-3" d="M94.46,53.48h-1.32v6.34c.77-.24,1.12-.35,1.67-.57l.13,2.51c-1.83.84-4.82,1.74-6.62,2.18l-.44-2.86c.68-.11,1.41-.22,2.62-.53v-7.06h-2.35v-2.6h2.35v-5.19h2.64v5.19h1.8v1.83l1.01-.26v-5.04h2.6v4.36l2.22-.59v-5.48h2.62v4.8l4.93-1.3c.07,2.07-.04,6.8-.37,9-.11.75-.4,2.13-2.13,2.13h-1.67l-.44-2.68h1.06c.46,0,.64-.09.77-.55.22-.88.24-3.43.24-4.51l-2.38.64v7.9h-2.62v-7.2l-2.22.57v8.36c0,.42.13.53.62.53h6.21c.68,0,.95,0,1.1-2.71l2.51.62c-.13,3.19-.79,4.77-2.64,4.77h-8.27c-1.69,0-2.11-.95-2.11-1.98v-8.89l-1.21.31-.29-2.02Z"/>
      <path class="cls-3" d="M127.81,46.55c-.09.57-.15.92-.35,1.76h8.67v2.71h-9.46c-.26.81-.51,1.28-.73,1.72,1.28-.59,2.22-.64,2.53-.64,2.42,0,3.26,1.85,3.48,2.33,2.4-.99,4.16-1.45,5.19-1.74l.66,2.9c-.9.18-2.46.46-5.26,1.47.07.73.09,1.5.09,2.22,0,.64,0,.99-.02,1.69h-2.88c.07-.88.09-1.87.04-2.77-1.17.59-3.1,1.54-3.1,2.95,0,1.72,2.11,1.72,4.31,1.72,1.8,0,3.76-.09,5.54-.26v2.84c-.77.02-2.77.09-4.4.09-3.21,0-4.88-.2-6.16-.7-1.19-.46-2.42-1.69-2.42-3.43,0-3.01,4.05-4.97,5.79-5.85-.11-.22-.51-.97-1.61-.97-.26,0-1.8,0-3.98,2.2-1.85,2.84-2.46,3.41-2.84,3.78l-2.09-2.16c1.12-1.06,3.3-3.21,4.84-7.39h-4.16v-2.71h4.91c.18-.81.24-1.36.31-1.98l3.1.22Z"/>
      <path class="cls-3" d="M153.48,63.36c1.12-.59,3.48-1.85,5.44-4.64h-4.6v-1.12c-.29.13-.68.31-1.65.68v6.07c0,.57,0,2.11-2.07,2.11h-2.31l-.31-2.86h1.61c.51,0,.51-.2.51-.55v-3.92c-.9.26-1.39.37-2.05.57l-.31-2.82c.59-.13,1.03-.22,2.35-.57v-4.44h-2.11v-2.49h2.11v-3.7h2.57v3.7h1.65v2.49h-1.65v3.7c.79-.24,1.14-.4,1.65-.59l.13,1.21h5.41v-1.94h2.57c-.22-.13-.55-.33-.55-1.19v-4.36h-1.21c-.09,4.75-3.39,6.07-4.64,6.56l-1.28-2.09c2-.62,3.54-1.47,3.76-4.47h-1.54v1.91h-2.35v-4.22h13.58v4.22h-2.42v-1.91h-1.67v3.04c0,.4.18.51.53.51h1.17c.48,0,.51-.11.59-1.25l2.18.31c-.15,2.42-.42,3.17-2.09,3.17h-2.93c-.2,0-.66,0-1.03-.18v1.89h6.18v2.53h-5.3c.77,1.08,2.35,2.99,5.5,4.58l-1.34,2.42c-1.01-.62-3.21-1.94-5.04-4.69v5.44h-2.66v-5.41c-1.65,2.33-3.32,3.59-5.02,4.67l-1.36-2.35Z"/>
      <path class="cls-3" d="M188.86,46.42h3.01v2.22h6.07v2.71h-6.07v4.55c0,.07.13.46.15.55.18.68.26,1.36.26,2.07,0,1.94-.62,5.83-5.24,6.87-1.63.37-2.99.44-4.07.51l-.92-2.66c5.13-.09,6.51-.9,7.06-2.53-.53.37-.97.68-2.22.68-2.44,0-4.62-1.76-4.62-4.42,0-1.87,1.21-4.58,4.8-4.58.75,0,1.21.13,1.91.44l-.02-1.47h-10.36v-2.71h10.3l-.04-2.22ZM189.1,56.61c0-.95-.64-1.83-1.94-1.83-.84,0-2.18.53-2.18,2.13,0,1.12.73,2.11,2.13,2.11,1.23,0,1.98-.9,1.98-1.91v-.51Z"/>
    </g>
  </g>
</svg>